<?xml version="1.0" encoding="utf-8"?>
<!-- Generator: Adobe Illustrator 27.5.0, SVG Export Plug-In . SVG Version: 6.00 Build 0)  -->
<svg version="1.1" id="Layer_1" xmlns="http://www.w3.org/2000/svg" xmlns:xlink="http://www.w3.org/1999/xlink" x="0px" y="0px"
	 viewBox="0 0 450 450" style="enable-background:new 0 0 450 450;" xml:space="preserve">
<ellipse style="fill:#DEDEDE;" cx="227" cy="388.219" rx="189" ry="31.781"/>
<g>
	<g>
		<polygon style="fill:#571900;" points="101.477,105.752 128.768,176.169 139.967,118.684 		"/>
		<polygon style="fill:#2E948F;" points="134.203,74.742 101.477,105.752 139.956,155.154 141.43,154.581 171.78,123.432 		"/>
	</g>
	<g>
		<polygon style="fill:#571900;" points="349.353,105.752 322.063,176.169 310.863,118.684 		"/>
		<polygon style="fill:#2E948F;" points="316.627,74.742 349.353,105.752 310.875,155.154 309.4,154.581 279.051,123.432 		"/>
	</g>
	<g>
		<g>
			
				<rect x="84.843" y="176.381" transform="matrix(0.2494 -0.9684 0.9684 0.2494 7.4373 388.177)" style="fill:#7BF9E3;" width="338.549" height="25.82"/>
			
				<rect x="94.463" y="188.792" transform="matrix(0.2494 -0.9684 0.9684 0.2494 12.2594 399.3525)" style="fill:#41C4A1;" width="338.549" height="5.952"/>
			
				<rect x="73.986" y="184.797" transform="matrix(0.2494 -0.9684 0.9684 0.2494 1.9952 375.5645)" style="fill:#D3FFFF;" width="338.549" height="3.397"/>
		</g>
		<g>
			
				<rect x="286.137" y="21.769" transform="matrix(0.2494 -0.9684 0.9684 0.2494 190.6782 296.5639)" style="fill:#23BD9A;" width="1.019" height="7.021"/>
			
				<rect x="285.064" y="25.936" transform="matrix(0.2494 -0.9684 0.9684 0.2494 185.8332 298.6513)" style="fill:#23BD9A;" width="1.019" height="7.021"/>
			
				<rect x="283.99" y="30.103" transform="matrix(0.2494 -0.9684 0.9684 0.2494 180.9932 300.7401)" style="fill:#23BD9A;" width="1.019" height="7.021"/>
			
				<rect x="282.918" y="34.27" transform="matrix(0.2494 -0.9684 0.9684 0.2494 176.1607 302.8328)" style="fill:#23BD9A;" width="1.019" height="7.022"/>
			
				<rect x="283.325" y="37.29" transform="matrix(0.2493 -0.9684 0.9684 0.2493 172.0686 306.6444)" style="fill:#23BD9A;" width="1.019" height="10.079"/>
			
				<rect x="280.997" y="41.728" transform="matrix(0.2493 -0.9684 0.9684 0.2493 167.5063 306.5745)" style="fill:#23BD9A;" width="1.019" height="7.021"/>
			
				<rect x="279.924" y="45.895" transform="matrix(0.2494 -0.9684 0.9684 0.2494 162.648 308.6556)" style="fill:#23BD9A;" width="1.019" height="7.021"/>
			
				<rect x="278.851" y="50.063" transform="matrix(0.2494 -0.9684 0.9684 0.2494 157.8057 310.7439)" style="fill:#23BD9A;" width="1.019" height="7.021"/>
			
				<rect x="277.778" y="54.23" transform="matrix(0.2493 -0.9684 0.9684 0.2493 152.9916 312.8461)" style="fill:#23BD9A;" width="1.019" height="7.022"/>
			
				<rect x="278.185" y="57.249" transform="matrix(0.2494 -0.9684 0.9684 0.2494 148.8688 316.643)" style="fill:#23BD9A;" width="1.019" height="10.079"/>
			
				<rect x="275.857" y="61.687" transform="matrix(0.2494 -0.9684 0.9684 0.2494 144.3019 316.5706)" style="fill:#23BD9A;" width="1.019" height="7.021"/>
			
				<rect x="274.784" y="65.855" transform="matrix(0.2494 -0.9684 0.9684 0.2494 139.4606 318.6594)" style="fill:#23BD9A;" width="1.019" height="7.021"/>
			
				<rect x="273.711" y="70.022" transform="matrix(0.2493 -0.9684 0.9684 0.2493 134.6373 320.7581)" style="fill:#23BD9A;" width="1.019" height="7.021"/>
			
				<rect x="272.638" y="74.189" transform="matrix(0.2494 -0.9684 0.9684 0.2494 129.7908 322.8441)" style="fill:#23BD9A;" width="1.019" height="7.022"/>
			
				<rect x="273.045" y="77.209" transform="matrix(0.2493 -0.9684 0.9684 0.2493 125.6966 326.6558)" style="fill:#23BD9A;" width="1.019" height="10.079"/>
			
				<rect x="270.718" y="81.647" transform="matrix(0.2494 -0.9684 0.9684 0.2494 121.1154 326.5749)" style="fill:#23BD9A;" width="1.019" height="7.021"/>
			
				<rect x="269.645" y="85.814" transform="matrix(0.2494 -0.9684 0.9684 0.2494 116.2754 328.6638)" style="fill:#23BD9A;" width="1.019" height="7.021"/>
			
				<rect x="268.571" y="89.981" transform="matrix(0.2494 -0.9684 0.9684 0.2494 111.4364 330.7542)" style="fill:#23BD9A;" width="1.019" height="7.021"/>
			
				<rect x="267.499" y="94.148" transform="matrix(0.2494 -0.9684 0.9684 0.2494 106.6014 332.8476)" style="fill:#23BD9A;" width="1.019" height="7.022"/>
			
				<rect x="267.906" y="97.168" transform="matrix(0.2494 -0.9684 0.9684 0.2494 102.4961 336.6515)" style="fill:#23BD9A;" width="1.019" height="10.079"/>
			
				<rect x="265.578" y="101.606" transform="matrix(0.2494 -0.9684 0.9684 0.2494 97.9302 336.5793)" style="fill:#23BD9A;" width="1.019" height="7.021"/>
			
				<rect x="264.505" y="105.773" transform="matrix(0.2494 -0.9684 0.9684 0.2494 93.0912 338.6699)" style="fill:#23BD9A;" width="1.019" height="7.021"/>
			
				<rect x="263.432" y="109.941" transform="matrix(0.2493 -0.9684 0.9684 0.2493 88.2634 340.7687)" style="fill:#23BD9A;" width="1.019" height="7.021"/>
			
				<rect x="262.359" y="114.107" transform="matrix(0.2494 -0.9684 0.9684 0.2494 83.4142 342.8514)" style="fill:#23BD9A;" width="1.019" height="7.022"/>
			
				<rect x="262.766" y="117.127" transform="matrix(0.2493 -0.9684 0.9684 0.2493 79.3204 346.6646)" style="fill:#23BD9A;" width="1.019" height="10.079"/>
			
				<rect x="260.439" y="121.565" transform="matrix(0.2494 -0.9684 0.9684 0.2494 74.7429 346.5829)" style="fill:#23BD9A;" width="1.019" height="7.021"/>
			
				<rect x="259.365" y="125.733" transform="matrix(0.2493 -0.9684 0.9684 0.2493 69.9177 348.6853)" style="fill:#23BD9A;" width="1.019" height="7.021"/>
			
				<rect x="258.292" y="129.9" transform="matrix(0.2494 -0.9684 0.9684 0.2494 65.0606 350.7601)" style="fill:#23BD9A;" width="1.019" height="7.021"/>
			
				<rect x="257.219" y="134.067" transform="matrix(0.2494 -0.9684 0.9684 0.2494 60.2281 352.8571)" style="fill:#23BD9A;" width="1.019" height="7.022"/>
			
				<rect x="257.626" y="137.087" transform="matrix(0.2493 -0.9684 0.9684 0.2493 56.1333 356.6699)" style="fill:#23BD9A;" width="1.019" height="10.079"/>
			
				<rect x="255.299" y="141.524" transform="matrix(0.2494 -0.9684 0.9684 0.2494 51.5576 356.5875)" style="fill:#23BD9A;" width="1.019" height="7.021"/>
			
				<rect x="254.226" y="145.692" transform="matrix(0.2494 -0.9684 0.9684 0.2494 46.7154 358.6755)" style="fill:#23BD9A;" width="1.019" height="7.021"/>
			
				<rect x="253.152" y="149.859" transform="matrix(0.2494 -0.9684 0.9684 0.2494 41.8748 360.765)" style="fill:#23BD9A;" width="1.019" height="7.021"/>
			
				<rect x="252.08" y="154.026" transform="matrix(0.2494 -0.9684 0.9684 0.2494 37.0409 362.8608)" style="fill:#23BD9A;" width="1.019" height="7.022"/>
			
				<rect x="252.487" y="157.046" transform="matrix(0.2493 -0.9684 0.9684 0.2493 32.9487 366.677)" style="fill:#23BD9A;" width="1.019" height="10.079"/>
			
				<rect x="250.159" y="161.484" transform="matrix(0.2494 -0.9684 0.9684 0.2494 28.3703 366.591)" style="fill:#23BD9A;" width="1.019" height="7.021"/>
			
				<rect x="249.086" y="165.651" transform="matrix(0.2493 -0.9684 0.9684 0.2493 23.5436 368.696)" style="fill:#23BD9A;" width="1.019" height="7.021"/>
			
				<rect x="248.013" y="169.818" transform="matrix(0.2494 -0.9684 0.9684 0.2494 18.688 370.7682)" style="fill:#23BD9A;" width="1.019" height="7.021"/>
			
				<rect x="246.94" y="173.985" transform="matrix(0.2494 -0.9684 0.9684 0.2494 13.8567 372.8689)" style="fill:#23BD9A;" width="1.019" height="7.022"/>
			
				<rect x="247.347" y="177.005" transform="matrix(0.2493 -0.9684 0.9684 0.2493 9.7601 376.6807)" style="fill:#23BD9A;" width="1.019" height="10.079"/>
			
				<rect x="245.02" y="181.443" transform="matrix(0.2493 -0.9684 0.9684 0.2493 5.1979 376.6125)" style="fill:#23BD9A;" width="1.019" height="7.021"/>
			
				<rect x="243.946" y="185.61" transform="matrix(0.2494 -0.9684 0.9684 0.2494 0.3455 378.687)" style="fill:#23BD9A;" width="1.019" height="7.021"/>
			
				<rect x="242.873" y="189.778" transform="matrix(0.2494 -0.9684 0.9684 0.2494 -4.4952 380.7767)" style="fill:#23BD9A;" width="1.019" height="7.021"/>
			
				<rect x="241.8" y="193.945" transform="matrix(0.2493 -0.9684 0.9684 0.2493 -9.3198 382.8877)" style="fill:#23BD9A;" width="1.019" height="7.022"/>
			
				<rect x="242.208" y="196.964" transform="matrix(0.2494 -0.9684 0.9684 0.2494 -13.4362 386.6729)" style="fill:#23BD9A;" width="1.019" height="10.079"/>
			
				<rect x="239.88" y="201.402" transform="matrix(0.2494 -0.9684 0.9684 0.2494 -17.9998 386.6026)" style="fill:#23BD9A;" width="1.019" height="7.021"/>
			
				<rect x="238.807" y="205.57" transform="matrix(0.2494 -0.9684 0.9684 0.2494 -22.843 388.6887)" style="fill:#23BD9A;" width="1.019" height="7.021"/>
			
				<rect x="237.733" y="209.737" transform="matrix(0.2494 -0.9684 0.9684 0.2494 -27.6845 390.7762)" style="fill:#23BD9A;" width="1.019" height="7.021"/>
			
				<rect x="236.661" y="213.904" transform="matrix(0.2494 -0.9684 0.9684 0.2494 -32.5192 392.8751)" style="fill:#23BD9A;" width="1.019" height="7.022"/>
			
				<rect x="237.068" y="216.924" transform="matrix(0.2493 -0.9684 0.9684 0.2493 -36.6138 396.6911)" style="fill:#23BD9A;" width="1.019" height="10.079"/>
			
				<rect x="234.74" y="221.362" transform="matrix(0.2494 -0.9684 0.9684 0.2494 -41.1882 396.6042)" style="fill:#23BD9A;" width="1.019" height="7.021"/>
			
				<rect x="233.668" y="225.529" transform="matrix(0.2494 -0.9684 0.9684 0.2494 -46.0301 398.692)" style="fill:#23BD9A;" width="1.018" height="7.021"/>
			
				<rect x="232.594" y="229.696" transform="matrix(0.2494 -0.9684 0.9684 0.2494 -50.8704 400.7815)" style="fill:#23BD9A;" width="1.018" height="7.021"/>
			
				<rect x="231.522" y="233.863" transform="matrix(0.2494 -0.9684 0.9684 0.2494 -55.7057 402.8795)" style="fill:#23BD9A;" width="1.018" height="7.022"/>
			
				<rect x="229.601" y="241.321" transform="matrix(0.2494 -0.9684 0.9684 0.2494 -64.3753 406.6075)" style="fill:#23BD9A;" width="1.018" height="7.021"/>
			
				<rect x="228.528" y="245.488" transform="matrix(0.2494 -0.9684 0.9684 0.2494 -69.2156 408.697)" style="fill:#23BD9A;" width="1.018" height="7.021"/>
			
				<rect x="227.455" y="249.655" transform="matrix(0.2494 -0.9684 0.9684 0.2494 -74.0571 410.7843)" style="fill:#23BD9A;" width="1.018" height="7.021"/>
			
				<rect x="226.382" y="253.823" transform="matrix(0.2494 -0.9684 0.9684 0.2494 -78.8908 412.889)" style="fill:#23BD9A;" width="1.019" height="7.022"/>
			
				<rect x="226.789" y="256.842" transform="matrix(0.2494 -0.9684 0.9684 0.2494 -82.9938 416.6896)" style="fill:#23BD9A;" width="1.019" height="10.079"/>
			
				<rect x="224.461" y="261.28" transform="matrix(0.2494 -0.9684 0.9684 0.2494 -87.5583 416.6178)" style="fill:#23BD9A;" width="1.018" height="7.021"/>
			
				<rect x="223.388" y="265.447" transform="matrix(0.2494 -0.9684 0.9684 0.2494 -92.4022 418.6997)" style="fill:#23BD9A;" width="1.019" height="7.021"/>
			
				<rect x="222.315" y="269.615" transform="matrix(0.2493 -0.9684 0.9684 0.2493 -97.2232 420.8327)" style="fill:#23BD9A;" width="1.019" height="7.02"/>
			
				<rect x="221.242" y="273.782" transform="matrix(0.2494 -0.9684 0.9684 0.2494 -102.0802 422.8877)" style="fill:#23BD9A;" width="1.019" height="7.021"/>
			
				<rect x="221.649" y="276.801" transform="matrix(0.2494 -0.9684 0.9684 0.2494 -106.1818 426.6899)" style="fill:#23BD9A;" width="1.018" height="10.079"/>
			
				<rect x="219.322" y="281.239" transform="matrix(0.2494 -0.9684 0.9684 0.2494 -110.7451 426.6208)" style="fill:#23BD9A;" width="1.019" height="7.021"/>
			
				<rect x="218.248" y="285.407" transform="matrix(0.2493 -0.9684 0.9684 0.2493 -115.5672 428.7557)" style="fill:#23BD9A;" width="1.019" height="7.021"/>
			
				<rect x="217.176" y="289.574" transform="matrix(0.2494 -0.9684 0.9684 0.2494 -120.4274 430.7989)" style="fill:#23BD9A;" width="1.018" height="7.021"/>
			
				<rect x="216.102" y="293.741" transform="matrix(0.2494 -0.9684 0.9684 0.2494 -125.2684 432.8874)" style="fill:#23BD9A;" width="1.018" height="7.021"/>
			
				<rect x="216.51" y="296.761" transform="matrix(0.2493 -0.9684 0.9684 0.2493 -129.3569 436.7241)" style="fill:#23BD9A;" width="1.018" height="10.079"/>
			
				<rect x="214.182" y="301.198" transform="matrix(0.2494 -0.9684 0.9684 0.2494 -133.9294 436.6298)" style="fill:#23BD9A;" width="1.019" height="7.021"/>
			
				<rect x="213.109" y="305.366" transform="matrix(0.2494 -0.9684 0.9684 0.2494 -138.7731 438.7142)" style="fill:#23BD9A;" width="1.018" height="7.021"/>
			
				<rect x="212.036" y="309.533" transform="matrix(0.2494 -0.9684 0.9684 0.2494 -143.6136 440.8032)" style="fill:#23BD9A;" width="1.018" height="7.021"/>
			
				<rect x="210.963" y="313.7" transform="matrix(0.2494 -0.9684 0.9684 0.2494 -148.4546 442.8916)" style="fill:#23BD9A;" width="1.018" height="7.021"/>
			
				<rect x="211.37" y="316.72" transform="matrix(0.2494 -0.9684 0.9684 0.2494 -152.5568 446.6941)" style="fill:#23BD9A;" width="1.019" height="10.079"/>
			
				<rect x="209.042" y="321.158" transform="matrix(0.2494 -0.9684 0.9684 0.2494 -157.1184 446.6299)" style="fill:#23BD9A;" width="1.018" height="7.021"/>
			
				<rect x="207.969" y="325.325" transform="matrix(0.2494 -0.9684 0.9684 0.2494 -161.9593 448.7185)" style="fill:#23BD9A;" width="1.018" height="7.021"/>
			
				<rect x="206.896" y="329.492" transform="matrix(0.2494 -0.9684 0.9684 0.2494 -166.7999 450.8073)" style="fill:#23BD9A;" width="1.018" height="7.021"/>
			
				<rect x="205.823" y="333.66" transform="matrix(0.2494 -0.9684 0.9684 0.2494 -171.6417 452.8966)" style="fill:#23BD9A;" width="1.019" height="7.021"/>
			
				<rect x="206.23" y="336.679" transform="matrix(0.2494 -0.9684 0.9684 0.2494 -175.7426 456.6989)" style="fill:#23BD9A;" width="1.019" height="10.079"/>
			
				<rect x="203.903" y="341.117" transform="matrix(0.2494 -0.9684 0.9684 0.2494 -180.3046 456.6341)" style="fill:#23BD9A;" width="1.018" height="7.021"/>
			
				<rect x="202.829" y="345.284" transform="matrix(0.2494 -0.9684 0.9684 0.2494 -185.1456 458.7225)" style="fill:#23BD9A;" width="1.018" height="7.021"/>
		</g>
	</g>
	<g>
		<polygon points="259.9,71.492 189.629,71.492 207.467,57.637 241.944,57.637 259.577,71.257 		"/>
		<polygon style="fill:#06A800;" points="207.471,57.648 189.421,71.486 189.421,109.389 207.41,109.389 		"/>
		<polygon style="fill:#06A800;" points="259.577,70.935 259.577,108.838 241.592,108.838 241.563,90.385 241.563,71.492 
			241.534,57.637 241.534,57.109 		"/>
	</g>
	<path style="fill:#FFC700;" d="M337,200.62v168.97c0,0.36,0,0.69-0.03,1.06c-0.56,19.48-16.47,35.03-36.07,35.03H148.09
		c-18.31,0-33.44-13.62-35.79-31.29c-0.2-1.58-0.32-3.17-0.32-4.8V200.62c0-8.75,0.99-17.24,2.9-25.4c0.02-0.11,0.05-0.21,0.08-0.32
		c0.97-4.1,2.17-8.11,3.57-12.02c1.21-3.35,2.57-6.63,4.08-9.82c3.88-8.19,8.72-15.84,14.41-22.78c1.44-1.78,2.93-3.51,4.48-5.21
		c3.67-3.92,7.59-7.63,11.75-11c4.22-3.44,8.7-6.55,13.42-9.35c1.76-1.04,3.54-2.04,5.37-2.98c2.13-1.11,4.31-2.15,6.55-3.12
		c0.41-0.19,0.84-0.38,1.27-0.55c3.11-1.33,6.31-2.52,9.57-3.56c5.79-1.87,11.83-3.24,18-4.12c5.2-0.78,10.52-1.15,15.94-1.15h3.1
		c5.13,0.04,10.17,0.41,15.09,1.15c6.18,0.88,12.21,2.25,18.02,4.12c3.87,1.24,7.61,2.68,11.27,4.31c4.09,1.79,8,3.84,11.78,6.1
		c4.81,2.87,9.37,6.06,13.65,9.6c1.83,1.5,3.61,3.05,5.33,4.72c0.58,0.53,1.21,1.07,1.79,1.63c1.55,1.52,3.05,3.09,4.48,4.66
		c13.15,14.38,22.55,32.23,26.71,52.02C336.18,185,337,192.7,337,200.62z"/>
	<path style="fill:#370400;" d="M314.49,311.2H130.151v-98.868c0-29.075,23.57-52.645,52.644-52.645h79.05
		c29.075,0,52.644,23.57,52.644,52.645V311.2z"/>
	<path d="M261.846,157.438h-79.05c-29.075,0-52.644,23.57-52.644,52.644v2.25c0-29.075,23.57-52.644,52.644-52.644h79.05
		c29.075,0,52.644,23.57,52.644,52.644v-2.25C314.49,181.007,290.921,157.438,261.846,157.438z"/>
	<path style="opacity:0.3;" d="M292.135,118.499L292.135,118.499l-0.64,0.518l0,0l-1.716,1.388l0,0l-0.64,0.518l0,0l-1.703,1.377
		l0,0l-0.64,0.518l0,0l-1.703,1.377l0,0l-0.64,0.518l0,0l-1.716,1.388h0l-0.64,0.518l0,0l-1.703,1.378l0,0l-0.516,0.418
		l-1.827,1.478l0,0l-0.64,0.518l0,0l-1.716,1.388l0,0l-0.64,0.518l0,0l-1.703,1.377h0l-0.64,0.518l0,0l-1.703,1.378l0,0l-0.64,0.518
		l0,0l-1.716,1.388l0,0l-0.64,0.518l0,0l-1.766,1.429l-0.577,0.467l0,0l-1.839,1.488l-0.504,0.408l0,0l-1.884,1.524l-0.472,0.382
		l0,0l-1.703,1.378l0,0l-0.313,0.254l-2.029,1.642l0,0l-0.64,0.518l0,0l-1.715,1.388l0,0l-0.64,0.518l0,0l-1.703,1.378v0
		l-0.64,0.518l0,0l-1.703,1.377l0,0l-0.616,0.499l-1.739,1.407l0,0l-0.581,0.47l-2.007,1.624l-0.395,0.32l0,0l-2.02,1.634
		l-0.323,0.261l0,0l-2.065,1.671l-0.291,0.235l0,0l-1.703,1.378l0,0l-0.111,0.09l-2.232,1.806l0,0l-0.64,0.518l0,0l-2.356,1.906
		l41.522,51.325l23.886-104.24L292.135,118.499z M268.826,189.31l-18.764-23.195l29.548-23.904L268.826,189.31z"/>
	<g>
		<path style="fill:#84F9E3;" d="M291.435,111.67l-62.201,56.65l44.453,48.808L291.435,111.67z M274.535,141.34l-8.01,47.649
			l-20.089-22.057L274.535,141.34z"/>
		<g>
			
				<rect x="285.917" y="116.834" transform="matrix(0.7394 -0.6733 0.6733 0.7394 -5.0186 223.6155)" style="fill:#23BD9A;" width="0.823" height="2.912"/>
			
				<rect x="283.677" y="118.874" transform="matrix(0.7394 -0.6733 0.6733 0.7394 -6.9762 222.639)" style="fill:#23BD9A;" width="0.823" height="2.912"/>
			
				<rect x="281.449" y="120.904" transform="matrix(0.7393 -0.6734 0.6734 0.7393 -8.9151 221.6915)" style="fill:#23BD9A;" width="0.823" height="2.912"/>
			
				<rect x="279.221" y="122.933" transform="matrix(0.7394 -0.6733 0.6733 0.7394 -10.87 220.6965)" style="fill:#23BD9A;" width="0.823" height="2.912"/>
			
				<rect x="276.981" y="124.973" transform="matrix(0.7393 -0.6734 0.6734 0.7393 -12.82 219.7437)" style="fill:#23BD9A;" width="0.823" height="2.912"/>
			
				<rect x="274.753" y="127.002" transform="matrix(0.7393 -0.6734 0.6734 0.7393 -14.7672 218.7725)" style="fill:#23BD9A;" width="0.823" height="2.912"/>
			
				<rect x="272.525" y="129.031" transform="matrix(0.7393 -0.6734 0.6734 0.7393 -16.7143 217.8013)" style="fill:#23BD9A;" width="0.823" height="2.912"/>
			
				<rect x="270.285" y="131.072" transform="matrix(0.7393 -0.6734 0.6734 0.7393 -18.6726 216.823)" style="fill:#23BD9A;" width="0.823" height="2.912"/>
			
				<rect x="268.057" y="133.101" transform="matrix(0.7393 -0.6734 0.6734 0.7393 -20.6198 215.8518)" style="fill:#23BD9A;" width="0.823" height="2.912"/>
			
				<rect x="265.829" y="135.13" transform="matrix(0.7393 -0.6734 0.6734 0.7393 -22.5665 214.8822)" style="fill:#23BD9A;" width="0.823" height="2.912"/>
			
				<rect x="263.588" y="137.17" transform="matrix(0.7393 -0.6734 0.6734 0.7393 -24.5243 213.9056)" style="fill:#23BD9A;" width="0.823" height="2.912"/>
			
				<rect x="261.36" y="139.199" transform="matrix(0.7393 -0.6734 0.6734 0.7393 -26.4715 212.9343)" style="fill:#23BD9A;" width="0.823" height="2.912"/>
			
				<rect x="259.133" y="141.229" transform="matrix(0.7393 -0.6734 0.6734 0.7393 -28.419 211.9615)" style="fill:#23BD9A;" width="0.823" height="2.912"/>
			
				<rect x="256.892" y="143.269" transform="matrix(0.7393 -0.6734 0.6734 0.7393 -30.3764 210.9865)" style="fill:#23BD9A;" width="0.823" height="2.912"/>
			
				<rect x="254.664" y="145.298" transform="matrix(0.7393 -0.6734 0.6734 0.7393 -32.3231 210.0176)" style="fill:#23BD9A;" width="0.823" height="2.912"/>
			
				<rect x="252.436" y="147.327" transform="matrix(0.7393 -0.6734 0.6734 0.7393 -34.2707 209.0441)" style="fill:#23BD9A;" width="0.823" height="2.912"/>
			
				<rect x="250.196" y="149.367" transform="matrix(0.7393 -0.6734 0.6734 0.7393 -36.2278 208.0713)" style="fill:#23BD9A;" width="0.823" height="2.912"/>
			
				<rect x="247.968" y="151.397" transform="matrix(0.7393 -0.6734 0.6734 0.7393 -38.175 207.1)" style="fill:#23BD9A;" width="0.823" height="2.912"/>
			
				<rect x="245.74" y="153.426" transform="matrix(0.7394 -0.6733 0.6733 0.7394 -40.1271 206.1016)" style="fill:#23BD9A;" width="0.823" height="2.912"/>
			
				<rect x="243.5" y="155.466" transform="matrix(0.7393 -0.6734 0.6734 0.7393 -42.0803 205.1507)" style="fill:#23BD9A;" width="0.823" height="2.912"/>
			
				<rect x="241.272" y="157.495" transform="matrix(0.7394 -0.6733 0.6733 0.7394 -44.0316 204.1538)" style="fill:#23BD9A;" width="0.823" height="2.912"/>
			
				<rect x="239.044" y="159.524" transform="matrix(0.7393 -0.6734 0.6734 0.7393 -45.9745 203.2096)" style="fill:#23BD9A;" width="0.823" height="2.912"/>
			
				<rect x="236.804" y="161.565" transform="matrix(0.7393 -0.6734 0.6734 0.7393 -47.9328 202.2293)" style="fill:#23BD9A;" width="0.823" height="2.912"/>
			
				<rect x="234.576" y="163.594" transform="matrix(0.7393 -0.6734 0.6734 0.7393 -49.88 201.2581)" style="fill:#23BD9A;" width="0.823" height="2.912"/>
			
				<rect x="232.348" y="165.623" transform="matrix(0.7394 -0.6733 0.6733 0.7394 -51.8298 200.2636)" style="fill:#23BD9A;" width="0.823" height="2.912"/>
		</g>
	</g>
	<path style="opacity:0.15;fill:#000010;" d="M343.528,275.12v71.003c0,8.907-2.379,17.292-6.561,24.525
		c-0.555,19.479-16.471,35.032-36.067,35.032h-74.427V89.239c5.131,0.043,10.166,0.416,15.084,1.152V71.488h-15.084V57.642h15.052
		v-0.533l18.049,13.825v0.32l0.331,0.235h-0.331v23.021c3.872,1.237,7.617,2.677,11.275,4.31c4.086,1.792,8.001,3.84,11.777,6.102
		c4.811,2.869,9.377,6.059,13.654,9.601c1.824,1.504,3.606,3.051,5.323,4.715c0.587,0.533,1.216,1.077,1.792,1.632
		c1.557,1.525,3.051,3.094,4.48,4.662c10.134,11.073,18.039,24.205,23.031,38.712c1.493,4.32,2.72,8.769,3.68,13.313
		c1.589,7.446,2.411,15.148,2.411,23.063v49.732c0.117,0.256,0.203,0.533,0.299,0.789
		C341.277,258.255,343.528,266.426,343.528,275.12z"/>
	<path style="opacity:0.3;" d="M189.07,266.13l-7.32,4.3l-0.2-0.34l-0.52-0.88l-0.29-0.49l-0.51-0.88l-0.35-0.58l-0.51-0.88
		l-0.29-0.49l-0.51-0.87l-0.35-0.59l-0.52-0.89l-0.3-0.51l-0.5-0.85l-0.34-0.58l-0.36-0.61l-0.45-0.76l-0.39-0.67l-0.47-0.8
		l-0.52-0.88l-0.28-0.48l-0.52-0.89l-0.35-0.58l-0.43-0.74l-0.36-0.62l-0.52-0.88l-0.35-0.59l-0.51-0.87l-0.36-0.62l-0.45-0.75
		l-0.49-0.83l-0.37-0.64l-0.52-0.89l-0.28-0.47l-0.34-0.58l-0.36-0.61l-0.45-0.76l-0.51-0.88l-0.35-0.59l-0.51-0.88l-0.29-0.49
		l-0.52-0.88l-0.34-0.58l-0.5-0.85l-0.3-0.51l-0.53-0.89l-0.34-0.59l-0.51-0.87l-0.34-0.58l-0.53-0.89l-0.34-0.59l-0.17-0.28
		l-0.69-1.17l-0.52-0.89l-0.54-0.93l-0.31-0.52l-1.21-2.07l-0.51-0.86l-0.8-1.35l-0.07-0.13l-0.35-0.58l-0.28-0.49l-0.57-0.97
		l-0.52-0.89l-1.2-2.04l-0.52-0.89l-0.51-0.85l-0.35-0.6l-0.34-0.59l-0.23-0.38l-0.64-1.09l-0.51-0.87l-0.74-1.26l-0.13-0.21
		l-0.34-0.59l-0.51-0.87l-0.35-0.58l-0.22-0.39l-0.64-1.09l-0.44-0.75l-0.42-0.7l-0.52-0.89l-1.2-2.04l-0.52-0.89l-0.74-1.26
		l-0.12-0.19l-1.21-2.07l-0.51-0.86l-0.34-0.59l-0.3-0.51l-0.57-0.97l-0.21-0.35l-0.77-1.31l-0.4-0.68l-1.19-2.04l-0.53-0.89
		l-0.7-1.18l-0.15-0.27l-1.21-2.06l-0.51-0.87l-1.21-2.06l-0.23-0.39l-2.35-3.99l-0.52-0.89l-0.66-1.12l-0.2-0.34l-1.21-2.06
		l-0.34-0.58l-4.3-7.32l-0.18-0.3l-1.2-2.04l-0.14-0.23l-4.12-7.01c1.21-3.35,2.57-6.63,4.08-9.82l1.82,3.08l0.01,0.02l6.87,11.7
		l0.46,0.78l6.75,11.48l0.2,0.34l2.53,4.3l0.05,0.09l1.21,2.06l0.05,0.08l5.36,9.12l0.26,0.45l1.22,2.06l0.1,0.18l1.17,1.99
		l0.1,0.18l1.2,2.03l0.26,0.45l4.32,7.34l0.24,0.42l1.21,2.06l0.22,0.37l1.08,1.83l0.08,0.14l1.2,2.04l0.52,0.89l2.12,3.6l0.46,0.78
		l1.21,2.06l0.17,0.3l0.88,1.5l0.33,0.55l1.19,2.03l0.53,0.9l0.69,1.18l0.16,0.27l1.21,2.06l0.35,0.6l2.17,3.69l0.15,0.25l0.66,1.12
		l0.19,0.33l0.67,1.13l0.52,0.88l0.28,0.48l0.52,0.89l1.14,1.95l0.41,0.69l2.35,4l0.29,0.49l0.32,0.55l0.48,0.8l0.34,0.59l0.14,0.23
		l0.67,1.14l0.09,0.16l0.77,1.31l0.28,0.47l0.52,0.9l0.52,0.87l1.26,2.16l0.41,0.68l1.14,1.94l0.38,0.66l0.78,1.33l0.22,0.36
		l0.55,0.95l0.25,0.42L189.07,266.13z"/>
	<g>
		<g>
			
				<rect x="143.153" y="132.746" transform="matrix(0.8261 -0.5635 0.5635 0.8261 -90.1443 118.7963)" style="fill:#CF0000;" width="8.493" height="145.405"/>
			
				<rect x="101.894" y="144.459" transform="matrix(0.8261 -0.5635 0.5635 0.8261 -63.2371 85.0281)" width="8.493" height="1.019"/>
			<path d="M98.323,133.509c-1.029,0.702,0.943,3.195,0.943,3.195l1.897,0.968l-0.209-2.119
				C100.954,135.553,99.353,132.807,98.323,133.509z"/>
			<polygon style="fill:#CF0000;" points="99.267,136.704 102.346,146.941 109.362,142.154 100.954,135.553 			"/>
			<path style="opacity:0.7;fill:#500000;" d="M103.395,148.479l0.582,0.853l7.016-4.786l-0.582-0.853L103.395,148.479z
				 M104.36,149.893l0.567,0.831l7.016-4.786l-0.567-0.831L104.36,149.893z M105.31,151.285l0.582,0.853l7.016-4.786l-0.582-0.853
				L105.31,151.285z M106.274,152.7l0.567,0.831l7.016-4.786l-0.567-0.831L106.274,152.7z M107.224,154.092l0.582,0.853l7.016-4.786
				l-0.582-0.853L107.224,154.092z M108.189,155.506l0.567,0.831l7.016-4.786l-0.567-0.831L108.189,155.506z M109.139,156.898
				l0.582,0.853l7.016-4.786l-0.582-0.853L109.139,156.898z M110.104,158.313l0.567,0.831l7.016-4.786l-0.567-0.831L110.104,158.313
				z M111.053,159.705l0.582,0.853l7.016-4.786l-0.582-0.853L111.053,159.705z M112.018,161.119l0.567,0.831l7.016-4.786
				l-0.567-0.831L112.018,161.119z M112.968,162.511l0.582,0.853l7.016-4.786l-0.582-0.853L112.968,162.511z M113.933,163.926
				l0.567,0.831l7.016-4.786l-0.567-0.831L113.933,163.926z M114.882,165.318l0.582,0.853l7.016-4.786l-0.582-0.853L114.882,165.318
				z M115.847,166.732l0.567,0.831l7.016-4.786l-0.567-0.831L115.847,166.732z M116.797,168.124l0.582,0.853l7.016-4.786
				l-0.582-0.853L116.797,168.124z M117.762,169.539l0.567,0.831l7.016-4.786l-0.567-0.831L117.762,169.539z M118.711,170.931
				l0.582,0.853l7.016-4.786l-0.582-0.853L118.711,170.931z M119.676,172.345l0.567,0.831l7.016-4.786l-0.567-0.831L119.676,172.345
				z M120.626,173.737l0.582,0.853l7.016-4.786l-0.582-0.853L120.626,173.737z M121.591,175.152l0.567,0.831l7.016-4.786
				l-0.567-0.831L121.591,175.152z M122.54,176.544l0.582,0.853l7.016-4.786l-0.582-0.853L122.54,176.544z M123.505,177.958
				l0.567,0.831l7.016-4.786l-0.567-0.831L123.505,177.958z M124.455,179.35l0.582,0.853l7.016-4.786l-0.582-0.853L124.455,179.35z
				 M125.42,180.764l0.567,0.831l7.016-4.786l-0.567-0.831L125.42,180.764z M126.369,182.156l0.582,0.853l7.016-4.786l-0.582-0.853
				L126.369,182.156z M127.334,183.571l0.567,0.831l7.016-4.786l-0.567-0.831L127.334,183.571z M128.284,184.963l0.582,0.853
				l7.016-4.786l-0.582-0.853L128.284,184.963z M129.249,186.378l0.567,0.831l7.016-4.786l-0.567-0.831L129.249,186.378z
				 M130.199,187.77l0.582,0.853l7.016-4.786l-0.582-0.853L130.199,187.77z M131.163,189.184l0.567,0.831l7.016-4.786l-0.567-0.831
				L131.163,189.184z M132.113,190.576l0.582,0.853l7.016-4.786l-0.582-0.853L132.113,190.576z M133.078,191.99l0.567,0.831
				l7.016-4.786l-0.567-0.831L133.078,191.99z M134.028,193.382l0.582,0.853l7.016-4.786l-0.582-0.853L134.028,193.382z
				 M134.993,194.797l0.567,0.831l7.016-4.786l-0.567-0.831L134.993,194.797z M135.942,196.189l0.582,0.853l7.016-4.786
				l-0.582-0.853L135.942,196.189z M136.907,197.603l0.567,0.831l7.016-4.786l-0.567-0.831L136.907,197.603z M137.857,198.995
				l0.582,0.853l7.016-4.786l-0.582-0.853L137.857,198.995z M138.822,200.41l0.567,0.831l7.016-4.786l-0.567-0.831L138.822,200.41z
				 M139.771,201.802l0.582,0.853l7.016-4.786l-0.582-0.853L139.771,201.802z M140.736,203.216l0.567,0.831l7.016-4.786
				l-0.567-0.831L140.736,203.216z M141.686,204.608l0.582,0.853l7.016-4.786l-0.582-0.853L141.686,204.608z M142.651,206.023
				l0.567,0.831l7.016-4.786l-0.567-0.831L142.651,206.023z M143.6,207.415l0.582,0.853l7.016-4.786l-0.582-0.853L143.6,207.415z
				 M144.565,208.829l0.567,0.831l7.016-4.786l-0.567-0.831L144.565,208.829z M145.515,210.221l0.582,0.853l7.016-4.786
				l-0.582-0.853L145.515,210.221z M146.48,211.636l0.567,0.831l7.016-4.786l-0.567-0.831L146.48,211.636z M147.429,213.028
				l0.582,0.853l7.016-4.786l-0.582-0.853L147.429,213.028z M148.394,214.442l0.567,0.831l7.016-4.786l-0.567-0.831L148.394,214.442
				z M149.344,215.834l0.582,0.853l7.016-4.786l-0.582-0.853L149.344,215.834z M150.309,217.249l0.567,0.831l7.016-4.786
				l-0.567-0.831L150.309,217.249z M151.258,218.641l0.582,0.853l7.016-4.786l-0.582-0.853L151.258,218.641z M152.223,220.055
				l0.567,0.831l7.016-4.786l-0.567-0.831L152.223,220.055z M153.173,221.447l0.582,0.853l7.016-4.786l-0.582-0.853L153.173,221.447
				z M154.138,222.862l0.567,0.831l7.016-4.786l-0.567-0.831L154.138,222.862z M155.087,224.254l0.582,0.853l7.016-4.786
				l-0.582-0.853L155.087,224.254z M156.052,225.668l0.567,0.831l7.016-4.786l-0.567-0.831L156.052,225.668z M157.002,227.06
				l0.582,0.853l7.016-4.786l-0.582-0.853L157.002,227.06z M157.967,228.475l0.567,0.831l7.016-4.786l-0.567-0.831L157.967,228.475z
				 M158.917,229.867l0.582,0.853l7.016-4.786l-0.582-0.853L158.917,229.867z M159.882,231.281l0.567,0.831l7.016-4.786
				l-0.567-0.831L159.882,231.281z M160.831,232.673l0.582,0.853l7.016-4.786l-0.582-0.853L160.831,232.673z M161.796,234.088
				l0.567,0.831l7.016-4.786l-0.567-0.831L161.796,234.088z M162.746,235.48l0.582,0.853l7.016-4.786l-0.582-0.853L162.746,235.48z
				 M163.711,236.894l0.567,0.831l7.016-4.786l-0.567-0.831L163.711,236.894z M164.66,238.286l0.582,0.853l7.016-4.786l-0.582-0.853
				L164.66,238.286z M165.556,239.6l0.574,0.842l7.016-4.786l-0.574-0.842L165.556,239.6z M166.513,241.003l0.574,0.842l7.016-4.786
				l-0.574-0.842L166.513,241.003z M167.41,242.316l0.574,0.842l7.016-4.786l-0.574-0.842L167.41,242.316z M168.367,243.719
				l0.574,0.842l7.016-4.786l-0.574-0.842L168.367,243.719z M169.255,245.022l0.582,0.853l7.016-4.786l-0.582-0.853L169.255,245.022
				z M170.22,246.436l0.567,0.831l7.016-4.786l-0.567-0.831L170.22,246.436z M171.108,247.738l0.574,0.842l7.016-4.786l-0.574-0.842
				L171.108,247.738z M172.066,249.141l0.574,0.842l7.016-4.786l-0.574-0.842L172.066,249.141z M172.962,250.455l0.574,0.842
				l7.016-4.786l-0.574-0.842L172.962,250.455z M173.919,251.858l0.574,0.842l7.016-4.786l-0.574-0.842L173.919,251.858z
				 M174.815,253.172l0.567,0.831l7.016-4.786l-0.567-0.831L174.815,253.172z M175.764,254.564l0.582,0.853l7.016-4.786
				l-0.582-0.853L175.764,254.564z M176.66,255.877l0.574,0.842l7.016-4.786l-0.574-0.842L176.66,255.877z M177.618,257.28
				l0.574,0.842l7.016-4.786l-0.574-0.842L177.618,257.28z M178.514,258.594l0.574,0.842l7.016-4.786l-0.574-0.842L178.514,258.594z
				 M179.471,259.997l0.574,0.842l7.016-4.786l-0.574-0.842L179.471,259.997z M180.359,261.299l0.582,0.853l7.016-4.786
				l-0.582-0.853L180.359,261.299z M181.324,262.714l0.567,0.831l7.016-4.786l-0.567-0.831L181.324,262.714z M182.213,264.016
				l0.574,0.842l7.016-4.786l-0.574-0.842L182.213,264.016z M183.17,265.419l0.574,0.842l7.016-4.786l-0.574-0.842L183.17,265.419z
				 M184.066,266.733l0.574,0.842l7.016-4.786l-0.574-0.842L184.066,266.733z"/>
		</g>
	</g>
	<g>
		<path style="opacity:0.3;" d="M253.603,238.615l67.365-107.713c0.459,0.321,0.849,0.693,1.175,1.088
			c0.821,0.994,0.86,2.422,0.176,3.515l-15.189,24.286c-0.119-0.137-0.253-0.265-0.416-0.366c-0.986-0.617-2.324-0.206-2.76,0.943
			c-0.26,0.684-0.072,1.501,0.46,2.003c0.877,0.827,2.213,0.634,2.85-0.297l0.035,0.022l16.511-26.401l1.562-2.497l0.082-0.13
			l-0.034-0.021c0.393-3.621-2.119-5.659-2.209-5.73l2.197-3.512c0.538-0.86,0.355-1.962-0.38-2.614l1.376-2.201
			c0.6-0.959,0.309-2.224-0.651-2.824l-1.013-0.634c-0.96-0.6-2.224-0.309-2.824,0.651l-1.397,2.233
			c-0.869-0.274-1.846,0.052-2.351,0.861l-2.173,3.475l0,0l-0.165,0.264l-69.466,111.073L253.603,238.615z"/>
		<g>
			<path style="fill:#78001E;" d="M318.256,120.993l-4.621-2.582l3.748-6.708c0.552-0.988,1.8-1.341,2.788-0.79l1.043,0.583
				c0.988,0.552,1.342,1.8,0.79,2.788L318.256,120.993z"/>
			<path style="fill:#FF004F;" d="M255.198,237.36l-7.454-4.164l66.048-118.217c0.552-0.988,1.8-1.341,2.788-0.789l3.876,2.165
				c0.988,0.552,1.341,1.8,0.789,2.788L255.198,237.36z"/>
			<path style="fill:#37006E;" d="M321.715,128.374c0.214-3.636-2.396-5.547-2.489-5.614l0.022-0.038l-7.454-4.164l-2.082,3.727
				l7.417,4.144c0.491,0.303,0.908,0.666,1.262,1.053c0.869,0.952,0.978,2.377,0.349,3.502l-13.971,25.007
				c-0.126-0.131-0.266-0.252-0.433-0.345c-1.016-0.567-2.331-0.091-2.711,1.079c-0.225,0.696,0.002,1.503,0.558,1.978
				c0.916,0.783,2.242,0.524,2.832-0.437l0.036,0.021l15.188-27.184l1.437-2.572l0.075-0.134L321.715,128.374z"/>
		</g>
	</g>
	<g>
		<g style="opacity:0.3;">
			
				<rect x="168.222" y="123.868" transform="matrix(0.9353 -0.3537 0.3537 0.9353 -58.7706 73.6038)" width="7.474" height="147.404"/>
			<path d="M143.166,118.96c-0.106-0.288-0.737-1.901-1.571-1.963c-0.539,0.553-0.073,1.982,0.09,2.426l-0.016,0.006l0.722,10.526
				l6.991-2.644L143.166,118.96z"/>
		</g>
		<g>
			
				<rect x="165.378" y="123.81" transform="matrix(0.9071 -0.4209 0.4209 0.9071 -67.4272 89.5368)" style="fill:#37006E;" width="7.474" height="147.404"/>
			<g>
				<path style="fill:#060606;" d="M132.964,119.365c-0.591,0.702,0.331,2.553,0.331,2.553l1.139,0.615l0.266-1.267
					C134.7,121.266,133.881,119.367,132.964,119.365z"/>
				<polygon style="fill:#FFF7CF;" points="133.215,121.785 134.702,132.231 141.481,129.085 134.611,121.137 				"/>
			</g>
		</g>
	</g>
	<path style="opacity:0.3;" d="M251.62,188.594l-18.437-81.952c-0.148-0.657-0.605-1.162-1.183-1.404
		c-0.457-0.618-1.249-0.945-2.047-0.765l-66.017,14.852c-1.078,0.243-1.755,1.313-1.512,2.39l18.437,81.952
		c0.148,0.657,0.605,1.162,1.183,1.404c0.457,0.618,1.249,0.945,2.047,0.765l66.017-14.852
		C251.185,190.741,251.862,189.671,251.62,188.594z"/>
	<g>
		<path style="fill:#2A2A2A;" d="M249.293,192.032l-65.349,17.558c-1.067,0.287-2.164-0.346-2.45-1.412l-21.796-81.123
			c-0.287-1.067,0.346-2.164,1.413-2.45l65.349-17.558c1.067-0.287,2.164,0.346,2.451,1.413l21.796,81.123
			C250.993,190.648,250.36,191.745,249.293,192.032z"/>
		<path style="fill:#FFFFFF;" d="M248.427,191.41l-65.349,17.558c-1.067,0.287-2.164-0.346-2.45-1.413l-21.796-81.123
			c-0.287-1.067,0.346-2.164,1.413-2.45l65.349-17.558c1.067-0.287,2.164,0.346,2.45,1.413l21.796,81.123
			C250.127,190.027,249.494,191.124,248.427,191.41z"/>
		<g>
			<path style="fill:#4B9BC9;" d="M225.204,114.212l3.544,13.192c0.285,1.062-0.35,2.165-1.412,2.45l-56.757,15.25
				c-1.039,0.217-2.076-0.405-2.354-1.438l-3.544-13.192c-0.285-1.062,0.35-2.165,1.412-2.451l56.661-15.224
				C223.816,112.514,224.919,113.15,225.204,114.212z"/>
			<path d="M170.164,145.648c-1.133,0-2.128-0.761-2.422-1.852l-3.544-13.192c-0.173-0.643-0.084-1.316,0.25-1.896
				c0.335-0.58,0.873-0.995,1.516-1.167l56.66-15.224c1.307-0.351,2.714,0.466,3.064,1.766l3.544,13.192
				c0.174,0.643,0.085,1.316-0.25,1.896c-0.334,0.58-0.872,0.995-1.515,1.167l-56.757,15.25
				C170.511,145.629,170.337,145.648,170.164,145.648z M223.27,113.231c-0.13,0-0.26,0.017-0.386,0.051l-56.66,15.224
				c-0.385,0.104-0.708,0.352-0.909,0.701c-0.201,0.348-0.254,0.752-0.151,1.137l3.544,13.192c0.203,0.754,0.992,1.242,1.769,1.079
				l56.729-15.244c0.385-0.104,0.708-0.352,0.908-0.7c0.201-0.349,0.255-0.753,0.151-1.137l-3.544-13.192
				C224.545,113.688,223.948,113.231,223.27,113.231z"/>
		</g>
		<polygon style="fill:#64A5C9;" points="192.172,121.608 186.618,140.246 171.166,144.398 176.72,125.76 		"/>
		<path style="fill:#752C00;" d="M184.615,153.624c0.285,1.062-0.35,2.165-1.413,2.451l-8.209,2.206
			c-1.062,0.285-2.165-0.35-2.451-1.413l-0.908-3.38c-0.285-1.062,0.35-2.165,1.413-2.451l8.209-2.205
			c1.062-0.286,2.165,0.35,2.451,1.412L184.615,153.624z"/>
		<path style="fill:#752C00;" d="M200.309,149.408c0.285,1.062-0.35,2.165-1.412,2.45l-8.209,2.206
			c-1.062,0.285-2.165-0.35-2.451-1.413l-0.908-3.38c-0.286-1.062,0.35-2.165,1.413-2.451l8.209-2.206
			c1.062-0.285,2.165,0.35,2.45,1.413L200.309,149.408z"/>
		<path style="fill:#752C00;" d="M216.364,145.094c0.285,1.062-0.35,2.165-1.413,2.451l-8.209,2.206
			c-1.062,0.285-2.165-0.35-2.451-1.413l-0.908-3.38c-0.285-1.062,0.35-2.165,1.413-2.451l8.209-2.206
			c1.062-0.285,2.165,0.35,2.451,1.413L216.364,145.094z"/>
		<path style="fill:#7F0000;" d="M232.42,140.78c0.286,1.062-0.35,2.165-1.412,2.45l-8.209,2.206
			c-1.062,0.285-2.165-0.35-2.45-1.413l-0.908-3.38c-0.285-1.062,0.35-2.165,1.413-2.45l8.209-2.206
			c1.062-0.285,2.165,0.35,2.451,1.413L232.42,140.78z"/>
		<path style="fill:#C9780B;" d="M184.064,153.306c0.286,1.062-0.35,2.165-1.413,2.451l-8.209,2.206
			c-1.062,0.285-2.165-0.35-2.45-1.413l-0.908-3.38c-0.285-1.062,0.35-2.165,1.412-2.451l8.209-2.206
			c1.062-0.285,2.165,0.35,2.45,1.413L184.064,153.306z"/>
		<path style="fill:#C9780B;" d="M199.757,149.09c0.285,1.062-0.35,2.165-1.413,2.45l-8.209,2.206
			c-1.062,0.285-2.165-0.35-2.45-1.412l-0.908-3.38c-0.285-1.062,0.35-2.165,1.413-2.45l8.209-2.206
			c1.062-0.285,2.165,0.35,2.451,1.413L199.757,149.09z"/>
		<path style="fill:#C9780B;" d="M215.813,144.776c0.285,1.062-0.35,2.165-1.413,2.451l-8.209,2.205
			c-1.062,0.286-2.165-0.35-2.45-1.412l-0.908-3.38c-0.285-1.062,0.35-2.165,1.413-2.451l8.209-2.206
			c1.062-0.285,2.165,0.35,2.45,1.413L215.813,144.776z"/>
		<path style="fill:#C70000;" d="M231.869,140.462c0.285,1.062-0.35,2.165-1.413,2.45l-8.209,2.206
			c-1.062,0.285-2.165-0.35-2.451-1.413l-0.908-3.38c-0.285-1.062,0.35-2.165,1.413-2.45l8.209-2.206
			c1.062-0.285,2.165,0.35,2.451,1.413L231.869,140.462z"/>
		<path d="M175.033,164.914c-0.285-1.062,0.35-2.165,1.413-2.45l6.438-1.73c1.062-0.285,2.165,0.35,2.45,1.413l1.73,6.438
			c0.285,1.062-0.35,2.165-1.413,2.45l-6.438,1.73c-1.062,0.285-2.165-0.35-2.45-1.413L175.033,164.914z"/>
		<path d="M187.306,161.616c-0.286-1.062,0.35-2.165,1.413-2.451l6.438-1.73c1.062-0.285,2.165,0.35,2.451,1.413l1.73,6.438
			c0.286,1.062-0.35,2.165-1.412,2.451l-6.438,1.73c-1.062,0.286-2.165-0.35-2.451-1.412L187.306,161.616z"/>
		<path d="M199.652,158.299c-0.285-1.062,0.35-2.165,1.413-2.451l6.438-1.73c1.062-0.285,2.165,0.35,2.451,1.413l1.73,6.438
			c0.285,1.062-0.35,2.165-1.413,2.451l-6.438,1.73c-1.062,0.286-2.165-0.35-2.451-1.412L199.652,158.299z"/>
		<path d="M211.925,155.002c-0.285-1.062,0.35-2.165,1.412-2.451l6.438-1.73c1.062-0.285,2.165,0.35,2.45,1.412l1.73,6.438
			c0.285,1.062-0.35,2.165-1.413,2.451l-6.438,1.73c-1.062,0.285-2.165-0.35-2.45-1.413L211.925,155.002z"/>
		<path d="M224.125,151.723c-0.285-1.062,0.35-2.165,1.413-2.45l6.438-1.73c1.062-0.285,2.165,0.35,2.45,1.413l1.73,6.438
			c0.285,1.062-0.35,2.165-1.412,2.451l-6.438,1.73c-1.062,0.285-2.165-0.35-2.45-1.413L224.125,151.723z"/>
		<path d="M178.753,178.756c-0.285-1.062,0.35-2.165,1.412-2.45l6.438-1.73c1.062-0.285,2.165,0.35,2.45,1.412l1.73,6.438
			c0.285,1.062-0.35,2.165-1.412,2.45l-6.438,1.73c-1.062,0.285-2.165-0.35-2.45-1.412L178.753,178.756z"/>
		<path d="M191.026,175.459c-0.285-1.062,0.35-2.165,1.413-2.451l6.438-1.73c1.062-0.286,2.165,0.35,2.451,1.412l1.73,6.438
			c0.285,1.062-0.35,2.165-1.413,2.451l-6.438,1.73c-1.062,0.285-2.165-0.35-2.451-1.413L191.026,175.459z"/>
		<path d="M215.644,168.844c-0.285-1.062,0.35-2.165,1.413-2.451l6.438-1.73c1.062-0.285,2.165,0.35,2.45,1.413l1.73,6.438
			c0.285,1.062-0.35,2.165-1.413,2.451l-6.438,1.73c-1.062,0.285-2.165-0.35-2.45-1.413L215.644,168.844z"/>
		<path d="M227.845,165.566c-0.285-1.062,0.35-2.165,1.413-2.451l6.438-1.73c1.062-0.285,2.165,0.35,2.45,1.412l1.73,6.438
			c0.285,1.062-0.35,2.165-1.413,2.451l-6.438,1.73c-1.062,0.285-2.165-0.35-2.45-1.413L227.845,165.566z"/>
		<path d="M182.472,192.598c-0.285-1.062,0.35-2.165,1.413-2.45l6.438-1.73c1.062-0.285,2.165,0.35,2.45,1.413l1.73,6.438
			c0.285,1.062-0.35,2.165-1.413,2.45l-6.438,1.73c-1.062,0.285-2.165-0.35-2.45-1.413L182.472,192.598z"/>
		<path d="M194.745,189.301c-0.286-1.062,0.35-2.165,1.412-2.451l6.438-1.73c1.062-0.285,2.165,0.35,2.451,1.413l1.73,6.438
			c0.285,1.062-0.35,2.165-1.413,2.451l-6.438,1.73c-1.062,0.286-2.165-0.35-2.451-1.412L194.745,189.301z"/>
		<path d="M207.09,185.984c-0.286-1.062,0.35-2.165,1.412-2.451l6.438-1.73c1.062-0.285,2.165,0.35,2.451,1.413l1.73,6.438
			c0.285,1.062-0.35,2.165-1.413,2.45l-6.438,1.73c-1.062,0.285-2.165-0.35-2.451-1.412L207.09,185.984z"/>
		<path d="M219.363,182.686c-0.285-1.062,0.35-2.165,1.412-2.451l6.438-1.73c1.062-0.286,2.165,0.35,2.45,1.412l1.73,6.438
			c0.285,1.062-0.35,2.165-1.413,2.451l-6.438,1.73c-1.062,0.285-2.165-0.35-2.45-1.413L219.363,182.686z"/>
		<path d="M231.564,179.408c-0.285-1.062,0.35-2.165,1.413-2.451l6.438-1.73c1.062-0.285,2.165,0.35,2.451,1.413l1.73,6.438
			c0.285,1.062-0.35,2.165-1.413,2.451l-6.438,1.73c-1.062,0.285-2.165-0.35-2.451-1.413L231.564,179.408z"/>
		<path style="fill:#181818;" d="M174.337,164.635c-0.285-1.062,0.35-2.165,1.412-2.45l6.438-1.73
			c1.062-0.285,2.165,0.35,2.451,1.413l1.73,6.438c0.285,1.062-0.35,2.165-1.413,2.45l-6.438,1.73
			c-1.062,0.285-2.165-0.35-2.451-1.413L174.337,164.635z"/>
		<path style="fill:#181818;" d="M186.61,161.337c-0.285-1.062,0.35-2.165,1.413-2.451l6.438-1.73
			c1.062-0.285,2.165,0.35,2.451,1.413l1.73,6.438c0.285,1.062-0.35,2.165-1.413,2.451l-6.438,1.73
			c-1.062,0.286-2.165-0.35-2.451-1.412L186.61,161.337z"/>
		<path style="fill:#181818;" d="M198.956,158.02c-0.285-1.062,0.35-2.165,1.413-2.451l6.438-1.73
			c1.062-0.285,2.165,0.35,2.45,1.413l1.73,6.438c0.285,1.062-0.35,2.165-1.413,2.451l-6.438,1.73
			c-1.062,0.286-2.165-0.35-2.45-1.412L198.956,158.02z"/>
		<path style="fill:#717171;" d="M211.229,154.723c-0.286-1.062,0.35-2.165,1.412-2.45l6.438-1.73
			c1.062-0.285,2.165,0.35,2.451,1.412l1.73,6.438c0.285,1.062-0.35,2.165-1.413,2.451l-6.438,1.73
			c-1.062,0.285-2.165-0.35-2.451-1.413L211.229,154.723z"/>
		<path style="fill:#717171;" d="M223.429,151.445c-0.285-1.062,0.35-2.165,1.413-2.45l6.438-1.73
			c1.062-0.285,2.165,0.35,2.45,1.413l1.73,6.438c0.285,1.062-0.35,2.165-1.413,2.45l-6.438,1.73
			c-1.062,0.285-2.165-0.35-2.45-1.413L223.429,151.445z"/>
		<path style="fill:#181818;" d="M178.056,178.477c-0.285-1.062,0.35-2.165,1.413-2.45l6.438-1.73
			c1.062-0.285,2.165,0.35,2.45,1.412l1.73,6.438c0.285,1.062-0.35,2.165-1.413,2.45l-6.438,1.73
			c-1.062,0.285-2.165-0.35-2.45-1.412L178.056,178.477z"/>
		<path style="fill:#181818;" d="M190.329,175.18c-0.285-1.062,0.35-2.165,1.413-2.451l6.438-1.73
			c1.062-0.286,2.165,0.35,2.451,1.412l1.73,6.438c0.286,1.062-0.35,2.165-1.412,2.451l-6.438,1.73
			c-1.062,0.285-2.165-0.35-2.451-1.413L190.329,175.18z"/>
		<path d="M203.371,172.142c-0.285-1.062,0.35-2.165,1.413-2.451l6.438-1.73c1.062-0.285,2.165,0.35,2.451,1.413l1.73,6.438
			c0.286,1.062-0.35,2.165-1.412,2.451l-6.438,1.73c-1.062,0.285-2.165-0.35-2.451-1.413L203.371,172.142z"/>
		<path style="fill:#181818;" d="M202.675,171.863c-0.285-1.062,0.35-2.165,1.413-2.451l6.438-1.73
			c1.062-0.285,2.165,0.35,2.45,1.413l1.73,6.438c0.285,1.062-0.35,2.165-1.413,2.451l-6.438,1.73
			c-1.062,0.285-2.165-0.35-2.451-1.413L202.675,171.863z"/>
		<path style="fill:#717171;" d="M214.948,168.565c-0.285-1.062,0.35-2.165,1.413-2.451l6.438-1.73
			c1.062-0.285,2.165,0.35,2.451,1.413l1.73,6.438c0.285,1.062-0.35,2.165-1.413,2.451l-6.438,1.73
			c-1.062,0.285-2.165-0.35-2.45-1.413L214.948,168.565z"/>
		<path style="fill:#717171;" d="M227.148,165.287c-0.285-1.062,0.35-2.165,1.413-2.45l6.438-1.73
			c1.062-0.285,2.165,0.35,2.45,1.412l1.73,6.438c0.285,1.062-0.35,2.165-1.412,2.451l-6.438,1.73
			c-1.062,0.285-2.165-0.35-2.45-1.413L227.148,165.287z"/>
		<path style="fill:#181818;" d="M181.775,192.32c-0.285-1.062,0.35-2.165,1.413-2.45l6.438-1.73c1.062-0.285,2.165,0.35,2.45,1.413
			l1.73,6.438c0.285,1.062-0.35,2.165-1.413,2.45l-6.438,1.73c-1.062,0.285-2.165-0.35-2.45-1.413L181.775,192.32z"/>
		<path style="fill:#181818;" d="M194.049,189.022c-0.286-1.062,0.35-2.165,1.412-2.451l6.438-1.73
			c1.062-0.285,2.165,0.35,2.451,1.413l1.73,6.438c0.285,1.062-0.35,2.165-1.413,2.451l-6.438,1.73
			c-1.062,0.286-2.165-0.35-2.451-1.412L194.049,189.022z"/>
		<path style="fill:#181818;" d="M206.394,185.705c-0.285-1.062,0.35-2.165,1.413-2.451l6.438-1.73
			c1.062-0.285,2.165,0.35,2.451,1.413l1.73,6.438c0.285,1.062-0.35,2.165-1.413,2.45l-6.438,1.73
			c-1.062,0.285-2.165-0.35-2.451-1.412L206.394,185.705z"/>
		<path style="fill:#717171;" d="M218.667,182.408c-0.285-1.062,0.35-2.165,1.412-2.451l6.438-1.73
			c1.062-0.286,2.165,0.35,2.45,1.412l1.73,6.438c0.285,1.062-0.35,2.165-1.413,2.451l-6.438,1.73
			c-1.062,0.285-2.165-0.35-2.45-1.413L218.667,182.408z"/>
		<path style="fill:#717171;" d="M230.868,179.129c-0.285-1.062,0.35-2.165,1.413-2.451l6.438-1.73
			c1.062-0.285,2.165,0.35,2.45,1.413l1.73,6.438c0.285,1.062-0.35,2.165-1.413,2.451l-6.438,1.73
			c-1.062,0.285-2.165-0.35-2.45-1.413L230.868,179.129z"/>
	</g>
	<path d="M314.49,316.675H130.151v-98.868c0-29.075,23.57-52.645,52.644-52.645h79.05c29.075,0,52.644,23.57,52.644,52.645V316.675z
		"/>
	<path style="fill:#06A800;" d="M309.861,313.095H134.781v-93.902c0-27.614,22.386-50,50-50h75.079c27.614,0,50,22.386,50,50
		V313.095z"/>
	<path style="fill:#06A800;" d="M343.527,275.127v71.003c0,8.905-2.373,17.282-6.561,24.517
		c-8.524,14.91-24.634,25.015-42.971,25.015H152.897c-16.755,0-31.635-8.436-40.598-21.266c-5.624-8.026-8.934-17.78-8.934-28.266
		v-71.003c0-10.281,3.193-19.889,8.612-27.827c0.527-0.791,1.084-1.553,1.67-2.285c0.908-1.171,1.875-2.314,2.9-3.398
		c0.41-0.498,0.849-0.937,1.318-1.406c0.029-0.029,0.029-0.029,0.059-0.059c1.494-1.523,3.105-2.929,4.804-4.218
		c8.348-6.473,18.835-10.34,30.17-10.34h141.098c12.683,0,24.283,4.804,33.041,12.742c1.962,1.757,3.779,3.661,5.419,5.712
		c0.41,0.439,0.762,0.908,1.113,1.377c1.259,1.67,2.402,3.427,3.427,5.243c0.117,0.146,0.205,0.293,0.293,0.469
		C341.272,258.255,343.527,266.427,343.527,275.127z"/>
	<path d="M310.437,272.909v63.278c0,13.698-11.117,24.815-24.815,24.815H162.169c-13.698,0-24.815-11.117-24.815-24.815v-63.278
		c0-13.698,11.117-24.815,24.815-24.815h123.454C299.32,248.094,310.437,259.211,310.437,272.909z"/>
	<path d="M285.622,244.419H162.169c-13.698,0-24.815,11.117-24.815,24.815v2.175c0-13.698,11.117-24.815,24.815-24.815h123.454
		c13.698,0,24.815,11.117,24.815,24.815v-2.175C310.437,255.536,299.32,244.419,285.622,244.419z"/>
	<path style="fill:#370400;" d="M285.622,246.669H162.169c-13.698,0-24.815,11.117-24.815,24.815v2.175
		c0-13.698,11.117-24.815,24.815-24.815h123.454c13.698,0,24.815,11.117,24.815,24.815v-2.175
		C310.437,257.786,299.32,246.669,285.622,246.669z"/>
	<g>
		<g>
			
				<rect x="191.065" y="220.805" transform="matrix(0.2305 -0.9731 0.9731 0.2305 -60.2948 446.1212)" width="121.715" height="80.757"/>
			
				<rect x="199.575" y="226.733" transform="matrix(0.2305 -0.9731 0.9731 0.2305 -64.3994 448.0357)" style="fill:#FFFFFF;" width="103.012" height="76.007"/>
		</g>
	</g>
	<g>
		<path style="opacity:0.3;" d="M217.038,186.689l-71.993,18.565c-1.086,0.28-1.739,1.387-1.459,2.473l26.53,102.882
			c0.28,1.086,1.387,1.739,2.473,1.459l71.993-18.565c1.086-0.28,1.739-1.387,1.459-2.473l-26.53-102.882
			C219.23,187.062,218.123,186.409,217.038,186.689z M174.012,308.475c-0.863,0.223-1.743-0.297-1.966-1.16
			c-0.223-0.863,0.297-1.743,1.16-1.966s1.743,0.297,1.966,1.16C175.395,307.372,174.875,308.252,174.012,308.475z M172.615,303.055
			c-0.863,0.223-1.743-0.297-1.966-1.16c-0.223-0.863,0.297-1.743,1.16-1.966c0.863-0.222,1.743,0.297,1.966,1.16
			S173.478,302.833,172.615,303.055z M171.217,297.636c-0.863,0.223-1.743-0.297-1.966-1.16c-0.223-0.863,0.297-1.743,1.16-1.966
			c0.863-0.223,1.743,0.297,1.966,1.16C172.6,296.534,172.08,297.414,171.217,297.636z M169.82,292.217
			c-0.863,0.223-1.743-0.297-1.966-1.16c-0.223-0.863,0.297-1.743,1.16-1.966c0.863-0.223,1.743,0.297,1.966,1.16
			C171.202,291.114,170.683,291.994,169.82,292.217z M168.422,286.798c-0.863,0.223-1.743-0.297-1.966-1.16
			c-0.223-0.863,0.297-1.743,1.16-1.966c0.863-0.223,1.743,0.297,1.966,1.16C169.805,285.695,169.286,286.575,168.422,286.798z
			 M167.025,281.379c-0.863,0.223-1.743-0.297-1.966-1.16c-0.223-0.863,0.297-1.743,1.16-1.966c0.863-0.223,1.743,0.297,1.966,1.16
			C168.407,280.276,167.888,281.156,167.025,281.379z M165.628,275.959c-0.863,0.223-1.743-0.297-1.966-1.16s0.297-1.743,1.16-1.966
			c0.863-0.222,1.743,0.297,1.966,1.16C167.01,274.857,166.491,275.737,165.628,275.959z M164.23,270.54
			c-0.863,0.223-1.743-0.297-1.966-1.16c-0.223-0.863,0.297-1.743,1.16-1.966c0.863-0.223,1.743,0.297,1.966,1.16
			C165.613,269.437,165.093,270.318,164.23,270.54z M162.833,265.121c-0.863,0.223-1.743-0.297-1.966-1.16
			c-0.222-0.863,0.297-1.743,1.16-1.966c0.863-0.223,1.743,0.297,1.966,1.16C164.215,264.018,163.696,264.898,162.833,265.121z
			 M161.435,259.702c-0.863,0.223-1.743-0.297-1.966-1.16c-0.223-0.863,0.297-1.743,1.16-1.966c0.863-0.223,1.743,0.297,1.966,1.16
			C162.818,258.599,162.298,259.479,161.435,259.702z M160.038,254.282c-0.863,0.223-1.743-0.297-1.966-1.16
			c-0.223-0.863,0.297-1.743,1.16-1.966c0.863-0.223,1.743,0.297,1.966,1.16C161.42,253.18,160.901,254.06,160.038,254.282z
			 M158.64,248.863c-0.863,0.223-1.743-0.297-1.966-1.16c-0.223-0.863,0.297-1.743,1.16-1.966c0.863-0.223,1.743,0.297,1.966,1.16
			C160.023,247.76,159.503,248.641,158.64,248.863z M157.243,243.444c-0.863,0.223-1.743-0.297-1.966-1.16
			c-0.223-0.863,0.297-1.743,1.16-1.966c0.863-0.223,1.743,0.297,1.966,1.16C158.625,242.341,158.106,243.221,157.243,243.444z
			 M155.845,238.025c-0.863,0.223-1.743-0.297-1.966-1.16c-0.223-0.863,0.297-1.743,1.16-1.966c0.863-0.223,1.743,0.297,1.966,1.16
			C157.228,236.922,156.708,237.802,155.845,238.025z M154.448,232.605c-0.863,0.223-1.743-0.297-1.966-1.16
			c-0.223-0.863,0.297-1.743,1.16-1.966c0.863-0.223,1.743,0.297,1.966,1.16C155.83,231.503,155.311,232.383,154.448,232.605z
			 M153.05,227.186c-0.863,0.223-1.743-0.297-1.966-1.16c-0.223-0.863,0.297-1.743,1.16-1.966c0.863-0.223,1.743,0.297,1.966,1.16
			C154.433,226.084,153.914,226.964,153.05,227.186z M151.653,221.767c-0.863,0.223-1.743-0.297-1.966-1.16
			c-0.223-0.863,0.297-1.743,1.16-1.966c0.863-0.223,1.743,0.297,1.966,1.16C153.035,220.664,152.516,221.544,151.653,221.767z
			 M150.256,216.348c-0.863,0.223-1.743-0.297-1.966-1.16c-0.223-0.863,0.297-1.743,1.16-1.966c0.863-0.223,1.743,0.297,1.966,1.16
			C151.638,215.245,151.119,216.125,150.256,216.348z M148.858,210.929c-0.863,0.223-1.743-0.297-1.966-1.16
			c-0.223-0.863,0.297-1.743,1.16-1.966c0.863-0.223,1.743,0.297,1.966,1.16C150.241,209.826,149.721,210.706,148.858,210.929z"/>
		<g>
			<path style="fill:#3DC4BE;" d="M204.151,183.709l-70.061,24.88c-1.057,0.375-1.609,1.536-1.234,2.593l35.555,100.122
				c0.375,1.057,1.536,1.609,2.592,1.234l70.062-24.88c1.057-0.375,1.609-1.536,1.234-2.592l-35.555-100.122
				C206.368,183.886,205.207,183.334,204.151,183.709z M172.102,308.832c-0.84,0.298-1.763-0.141-2.061-0.981
				c-0.298-0.84,0.141-1.763,0.981-2.061s1.763,0.141,2.061,0.981C173.381,307.611,172.942,308.534,172.102,308.832z
				 M170.229,303.559c-0.84,0.298-1.763-0.141-2.061-0.981c-0.298-0.84,0.141-1.763,0.981-2.061c0.84-0.298,1.763,0.141,2.061,0.981
				C171.508,302.337,171.069,303.26,170.229,303.559z M168.356,298.285c-0.84,0.298-1.763-0.141-2.061-0.981
				c-0.298-0.84,0.141-1.763,0.981-2.061s1.763,0.141,2.061,0.981C169.635,297.064,169.196,297.986,168.356,298.285z
				 M166.483,293.011c-0.84,0.298-1.763-0.141-2.061-0.981c-0.298-0.84,0.141-1.763,0.981-2.061c0.84-0.298,1.763,0.141,2.061,0.981
				S167.323,292.712,166.483,293.011z M164.61,287.737c-0.84,0.298-1.763-0.141-2.061-0.981c-0.298-0.84,0.141-1.763,0.981-2.061
				c0.84-0.298,1.763,0.141,2.061,0.981C165.89,286.516,165.45,287.439,164.61,287.737z M162.738,282.463
				c-0.84,0.298-1.763-0.141-2.061-0.981c-0.298-0.84,0.141-1.763,0.981-2.061c0.84-0.298,1.763,0.141,2.061,0.981
				C164.017,281.242,163.578,282.165,162.738,282.463z M160.865,277.189c-0.84,0.298-1.763-0.141-2.061-0.981
				c-0.298-0.84,0.141-1.763,0.981-2.061c0.84-0.298,1.763,0.141,2.061,0.981C162.144,275.968,161.705,276.891,160.865,277.189z
				 M158.992,271.915c-0.84,0.298-1.763-0.141-2.061-0.981c-0.298-0.84,0.141-1.763,0.981-2.061c0.84-0.298,1.763,0.141,2.061,0.981
				C160.271,270.694,159.832,271.617,158.992,271.915z M157.119,266.642c-0.84,0.298-1.763-0.141-2.061-0.981
				c-0.298-0.84,0.141-1.763,0.981-2.061c0.84-0.298,1.763,0.141,2.061,0.981C158.398,265.421,157.959,266.343,157.119,266.642z
				 M155.246,261.368c-0.84,0.298-1.763-0.141-2.061-0.981c-0.298-0.84,0.141-1.763,0.981-2.061s1.763,0.141,2.061,0.981
				C156.525,260.147,156.086,261.069,155.246,261.368z M153.374,256.094c-0.84,0.298-1.763-0.141-2.061-0.981
				c-0.298-0.84,0.141-1.763,0.981-2.061c0.84-0.298,1.763,0.141,2.061,0.981C154.653,254.873,154.214,255.796,153.374,256.094z
				 M151.501,250.82c-0.84,0.298-1.763-0.141-2.061-0.981c-0.298-0.84,0.141-1.763,0.981-2.061c0.84-0.298,1.763,0.141,2.061,0.981
				C152.78,249.599,152.341,250.522,151.501,250.82z M149.628,245.546c-0.84,0.298-1.763-0.141-2.061-0.981
				c-0.298-0.84,0.141-1.763,0.981-2.061c0.84-0.298,1.763,0.141,2.061,0.981C150.907,244.325,150.468,245.248,149.628,245.546z
				 M147.755,240.272c-0.84,0.298-1.763-0.141-2.061-0.981c-0.298-0.84,0.141-1.763,0.981-2.061c0.84-0.298,1.763,0.141,2.061,0.981
				C149.034,239.051,148.595,239.974,147.755,240.272z M145.882,234.999c-0.84,0.298-1.763-0.141-2.061-0.981
				c-0.298-0.84,0.141-1.763,0.981-2.061c0.84-0.298,1.763,0.141,2.061,0.981C147.161,233.777,146.722,234.7,145.882,234.999z
				 M144.009,229.725c-0.84,0.298-1.763-0.141-2.061-0.981c-0.298-0.84,0.141-1.763,0.981-2.061c0.84-0.298,1.763,0.141,2.061,0.981
				S144.85,229.426,144.009,229.725z M142.137,224.451c-0.84,0.298-1.763-0.141-2.061-0.981c-0.298-0.84,0.141-1.763,0.981-2.061
				c0.84-0.298,1.763,0.141,2.061,0.981C143.416,223.23,142.977,224.153,142.137,224.451z M140.264,219.177
				c-0.84,0.298-1.763-0.141-2.061-0.981s0.141-1.763,0.981-2.061c0.84-0.298,1.763,0.141,2.061,0.981
				C141.543,217.956,141.104,218.879,140.264,219.177z M138.391,213.903c-0.84,0.298-1.763-0.141-2.061-0.981
				c-0.298-0.84,0.141-1.763,0.981-2.061c0.84-0.298,1.763,0.141,2.061,0.981C139.67,212.682,139.231,213.605,138.391,213.903z"/>
			<g>
				<path style="fill:#FF0000;" d="M137.455,212.471c0.12,0.339-0.123,0.739-0.54,0.887l-2.943,1.045
					c-0.418,0.148-0.858-0.008-0.979-0.348c-0.12-0.339,0.123-0.738,0.54-0.887l2.943-1.045
					C136.894,211.975,137.335,212.132,137.455,212.471z"/>
				<path style="fill:#FF0000;" d="M139.346,217.797c0.121,0.339-0.123,0.738-0.54,0.887l-2.943,1.045
					c-0.418,0.148-0.858-0.008-0.979-0.347c-0.121-0.339,0.123-0.739,0.54-0.887l2.943-1.045
					C138.785,217.301,139.226,217.457,139.346,217.797z"/>
				<path style="fill:#FF0000;" d="M141.212,223.05c0.12,0.339-0.123,0.739-0.541,0.887l-2.943,1.045
					c-0.418,0.148-0.858-0.008-0.979-0.348c-0.12-0.339,0.123-0.738,0.54-0.887l2.943-1.045
					C140.651,222.555,141.092,222.711,141.212,223.05z"/>
				<path style="fill:#FF0000;" d="M143.078,228.304c0.12,0.34-0.123,0.739-0.54,0.887l-2.943,1.045
					c-0.418,0.148-0.858-0.008-0.979-0.347c-0.121-0.34,0.123-0.739,0.54-0.887l2.943-1.045
					C142.517,227.808,142.957,227.965,143.078,228.304z"/>
				<path style="fill:#FF0000;" d="M144.921,233.496c0.121,0.339-0.123,0.739-0.54,0.887l-2.943,1.045
					c-0.418,0.148-0.858-0.008-0.979-0.347c-0.12-0.339,0.123-0.739,0.54-0.887l2.944-1.045
					C144.36,233,144.801,233.156,144.921,233.496z"/>
				<path style="fill:#FF0000;" d="M146.813,238.821c0.12,0.34-0.123,0.739-0.54,0.887l-2.943,1.045
					c-0.418,0.148-0.858-0.008-0.979-0.347c-0.121-0.34,0.123-0.739,0.54-0.887l2.943-1.045
					C146.252,238.326,146.692,238.482,146.813,238.821z"/>
				<path style="fill:#FF0000;" d="M148.678,244.075c0.12,0.34-0.123,0.739-0.54,0.887l-2.943,1.045
					c-0.418,0.148-0.858-0.008-0.979-0.347c-0.12-0.34,0.123-0.739,0.54-0.887l2.943-1.045
					C148.117,243.579,148.558,243.736,148.678,244.075z"/>
				<path style="fill:#FF0000;" d="M150.544,249.329c0.12,0.339-0.123,0.738-0.54,0.887l-2.943,1.045
					c-0.418,0.148-0.858-0.008-0.979-0.348c-0.12-0.339,0.123-0.739,0.541-0.887l2.943-1.045
					C149.983,248.833,150.423,248.99,150.544,249.329z"/>
				<path style="fill:#FF0000;" d="M152.42,254.611c0.12,0.339-0.123,0.739-0.54,0.887l-2.943,1.045
					c-0.418,0.148-0.858-0.008-0.979-0.347c-0.12-0.339,0.123-0.739,0.54-0.887l2.944-1.045
					C151.859,254.115,152.299,254.271,152.42,254.611z"/>
				<path style="fill:#FF0000;" d="M154.311,259.936c0.12,0.339-0.123,0.738-0.54,0.887l-2.943,1.045
					c-0.418,0.148-0.858-0.008-0.979-0.348c-0.12-0.339,0.123-0.738,0.54-0.887l2.943-1.045
					C153.75,259.44,154.19,259.597,154.311,259.936z"/>
				<path style="fill:#FF0000;" d="M156.177,265.19c0.12,0.34-0.123,0.739-0.54,0.887l-2.943,1.045
					c-0.418,0.148-0.858-0.008-0.979-0.347c-0.12-0.34,0.123-0.739,0.54-0.887l2.943-1.045
					C155.616,264.694,156.056,264.851,156.177,265.19z"/>
				<path style="fill:#FF0000;" d="M158.042,270.444c0.12,0.339-0.123,0.738-0.54,0.887l-2.943,1.045
					c-0.418,0.148-0.858-0.008-0.979-0.347c-0.12-0.339,0.123-0.738,0.541-0.887l2.943-1.045
					C157.481,269.948,157.922,270.104,158.042,270.444z"/>
				<path style="fill:#FF0000;" d="M160.01,275.985c0.12,0.339-0.123,0.738-0.541,0.887l-2.943,1.045
					c-0.418,0.148-0.858-0.008-0.979-0.347c-0.12-0.339,0.123-0.738,0.54-0.887l2.943-1.045
					C159.449,275.489,159.889,275.645,160.01,275.985z"/>
				<path style="fill:#FF0000;" d="M161.885,281.266c0.121,0.339-0.123,0.738-0.54,0.887l-2.944,1.045
					c-0.418,0.148-0.858-0.008-0.979-0.347c-0.121-0.339,0.123-0.739,0.54-0.887l2.943-1.045
					C161.324,280.771,161.765,280.927,161.885,281.266z"/>
				<path style="fill:#FF0000;" d="M163.777,286.592c0.121,0.339-0.123,0.739-0.54,0.887l-2.943,1.045
					c-0.418,0.148-0.858-0.008-0.979-0.347c-0.121-0.339,0.123-0.738,0.54-0.887l2.943-1.045
					C163.216,286.096,163.656,286.252,163.777,286.592z"/>
				<path style="fill:#FF0000;" d="M165.642,291.846c0.121,0.34-0.123,0.739-0.54,0.887l-2.943,1.045
					c-0.418,0.148-0.858-0.008-0.979-0.347c-0.121-0.34,0.123-0.739,0.54-0.887l2.943-1.045
					C165.081,291.35,165.522,291.506,165.642,291.846z"/>
				<path style="fill:#FF0000;" d="M167.508,297.099c0.121,0.34-0.123,0.739-0.54,0.887l-2.943,1.045
					c-0.418,0.148-0.858-0.008-0.979-0.347c-0.121-0.34,0.123-0.739,0.54-0.887l2.943-1.045
					C166.947,296.604,167.387,296.76,167.508,297.099z"/>
				<path style="fill:#FF0000;" d="M169.374,302.354c0.12,0.339-0.123,0.738-0.541,0.887l-2.943,1.045
					c-0.418,0.148-0.858-0.008-0.979-0.348c-0.12-0.339,0.123-0.738,0.54-0.887l2.943-1.045
					C168.813,301.858,169.253,302.014,169.374,302.354z"/>
				<path style="fill:#FF0000;" d="M171.24,307.608c0.12,0.339-0.123,0.739-0.54,0.887l-2.943,1.045
					c-0.418,0.148-0.858-0.008-0.979-0.347c-0.12-0.339,0.123-0.739,0.54-0.887l2.943-1.045
					C170.679,307.112,171.119,307.268,171.24,307.608z"/>
			</g>
		</g>
	</g>
	<g>
		<g>
			<path style="fill:#FF9700;" d="M307.823,280.615v61.367c0,13.284-10.781,24.065-24.065,24.065H164.033
				c-13.284,0-24.066-10.781-24.066-24.065v-61.367c0-13.284,10.781-24.065,24.066-24.065h119.726
				C297.042,256.549,307.823,267.33,307.823,280.615z"/>
			<path style="fill:#FFFF00;" d="M283.758,368.443H164.033c-14.592,0-26.463-11.87-26.463-26.462v-61.367
				c0-14.592,11.871-26.462,26.463-26.462h119.725c14.592,0,26.462,11.87,26.462,26.462v61.367
				C310.22,356.573,298.35,368.443,283.758,368.443z M164.033,258.945c-11.948,0-21.669,9.721-21.669,21.669v61.367
				c0,11.948,9.721,21.669,21.669,21.669h119.725c11.948,0,21.669-9.721,21.669-21.669v-61.367c0-11.948-9.721-21.669-21.669-21.669
				H164.033z"/>
		</g>
		<rect x="142.499" y="290.578" width="162.568" height="4.741"/>
		<rect x="298.087" y="293.5" width="1.274" height="5.716"/>
		<path d="M300.41,297.447h-3.427c-1.318,0-2.402,1.084-2.402,2.431v13.562c0,2.255,1.816,4.071,4.072,4.071h0.088
			c2.256,0,4.072-1.816,4.072-4.071v-13.562C302.812,298.531,301.728,297.447,300.41,297.447z M298.711,316.164
			c-1.611,0-2.929-1.289-2.929-2.9c0-1.611,1.318-2.9,2.929-2.9c1.582,0,2.9,1.289,2.9,2.9
			C301.611,314.875,300.293,316.164,298.711,316.164z"/>
	</g>
	<path style="opacity:0.15;fill:#000010;" d="M337.294,251.138c-14.453-21.064-31.942-24.765-37.097-25.409v0.262l-8.307,31.342
		h-65.416v148.342h74.428c19.596,0,35.509-15.546,36.066-35.033c4.186-7.23,6.564-15.614,6.564-24.515v-71.004
		C343.531,266.426,341.275,258.259,337.294,251.138z"/>
</g>
</svg>
